<svg xmlns="http://www.w3.org/2000/svg" width="42" height="42" viewBox="0 0 42 42" fill="none">
    <g opacity="0.7">
        <path d="M33.7232 9.3275C31.3957 8.2425 28.8757 7.455 26.2507 7C26.2045 7.00066 26.1605 7.01953 26.1282 7.0525C25.8132 7.63 25.4457 8.3825 25.2007 8.96C22.4164 8.54026 19.585 8.54026 16.8007 8.96C16.5557 8.365 16.1882 7.63 15.8557 7.0525C15.8382 7.0175 15.7857 7 15.7332 7C13.1082 7.455 10.6057 8.2425 8.26069 9.3275C8.24319 9.3275 8.22569 9.345 8.20819 9.3625C3.44819 16.485 2.13569 23.415 2.78319 30.275C2.78319 30.31 2.80069 30.345 2.83569 30.3625C5.98569 32.6725 9.01319 34.0725 12.0057 35C12.0582 35.0175 12.1107 35 12.1282 34.965C12.8282 34.0025 13.4582 32.9875 14.0007 31.92C14.0357 31.85 14.0007 31.78 13.9307 31.7625C12.9332 31.3775 11.9882 30.9225 11.0607 30.3975C10.9907 30.3625 10.9907 30.2575 11.0432 30.205C11.2357 30.065 11.4282 29.9075 11.6207 29.7675C11.6557 29.7325 11.7082 29.7325 11.7432 29.75C17.7632 32.4975 24.2557 32.4975 30.2057 29.75C30.2407 29.7325 30.2932 29.7325 30.3282 29.7675C30.5207 29.925 30.7132 30.065 30.9057 30.2225C30.9757 30.275 30.9757 30.38 30.8882 30.415C29.9782 30.9575 29.0157 31.395 28.0182 31.78C27.9482 31.7975 27.9307 31.885 27.9482 31.9375C28.5082 33.005 29.1382 34.02 29.8207 34.9825C29.8732 35 29.9257 35.0175 29.9782 35C32.9882 34.0725 36.0157 32.6725 39.1657 30.3625C39.2007 30.345 39.2182 30.31 39.2182 30.275C39.9882 22.3475 37.9407 15.47 33.7932 9.3625C33.7757 9.345 33.7582 9.3275 33.7232 9.3275ZM14.9107 26.0925C13.1082 26.0925 11.6032 24.43 11.6032 22.3825C11.6032 20.335 13.0732 18.6725 14.9107 18.6725C16.7657 18.6725 18.2357 20.3525 18.2182 22.3825C18.2182 24.43 16.7482 26.0925 14.9107 26.0925ZM27.1082 26.0925C25.3057 26.0925 23.8007 24.43 23.8007 22.3825C23.8007 20.335 25.2707 18.6725 27.1082 18.6725C28.9632 18.6725 30.4332 20.3525 30.4157 22.3825C30.4157 24.43 28.9632 26.0925 27.1082 26.0925Z" fill="#648BFD"/>
    </g>
</svg>
