<svg width="204" height="44" viewBox="0 0 204 44" fill="none" xmlns="http://www.w3.org/2000/svg">
    <path d="M72.8215 25.6445L74.8141 23.5381L81.5034 29.9712L79.5251 32.0777L72.8215 25.6445ZM71.868 31.9923C69.9703 31.9923 68.2813 31.5653 66.8012 30.7113C65.321 29.8574 64.1587 28.6571 63.3142 27.1105C62.4697 25.5544 62.0475 23.7279 62.0475 21.631C62.0475 19.534 62.4697 17.7123 63.3142 16.1657C64.1587 14.6096 65.321 13.4045 66.8012 12.5506C68.2813 11.6966 69.9703 11.2697 71.868 11.2697C73.7656 11.2697 75.4546 11.6966 76.9347 12.5506C78.4149 13.4045 79.5773 14.6096 80.4217 16.1657C81.2662 17.7123 81.6884 19.534 81.6884 21.631C81.6884 23.7279 81.2662 25.5544 80.4217 27.1105C79.5773 28.6571 78.4149 29.8574 76.9347 30.7113C75.4546 31.5653 73.7656 31.9923 71.868 31.9923ZM71.868 28.7899C73.2627 28.7899 74.4298 28.4816 75.3692 27.8648C76.3085 27.2386 77.0154 26.3846 77.4898 25.303C77.9642 24.2213 78.2014 22.9973 78.2014 21.631C78.2014 20.2646 77.9642 19.0406 77.4898 17.959C77.0154 16.8773 76.3085 16.0281 75.3692 15.4113C74.4298 14.7851 73.2627 14.472 71.868 14.472C70.4637 14.472 69.2919 14.7851 68.3525 15.4113C67.4132 16.0281 66.7063 16.8773 66.2319 17.959C65.7574 19.0406 65.5202 20.2646 65.5202 21.631C65.5202 22.9973 65.7574 24.2213 66.2319 25.303C66.7063 26.3846 67.4132 27.2386 68.3525 27.8648C69.2919 28.4816 70.4637 28.7899 71.868 28.7899ZM89.8519 31.8784C88.514 31.8784 87.4229 31.6127 86.5784 31.0814C85.7339 30.5405 85.1125 29.7815 84.7139 28.8042C84.3249 27.8174 84.1304 26.6456 84.1304 25.2887V17.4608H87.3043V25.0325C87.3043 26.4084 87.5367 27.4426 88.0017 28.1352C88.4761 28.8184 89.2352 29.16 90.2789 29.16C91.0759 29.16 91.7638 28.9702 92.3426 28.5907C92.9214 28.2111 93.3721 27.6561 93.6947 26.9255L93.1539 28.5622V17.4608H96.3277V31.5938H93.41L93.1112 29.0177L93.8513 29.8289C93.4622 30.4172 92.9119 30.9058 92.2003 31.2949C91.4886 31.6839 90.7059 31.8784 89.8519 31.8784ZM102.846 31.8784C102.049 31.8784 101.333 31.7076 100.697 31.366C100.061 31.0244 99.5583 30.5405 99.1882 29.9143C98.8277 29.2881 98.6474 28.548 98.6474 27.694C98.6474 26.897 98.8277 26.2138 99.1882 25.6445C99.5583 25.0657 100.042 24.5866 100.64 24.2071C101.247 23.8275 101.907 23.5286 102.618 23.3104C103.339 23.0827 104.061 22.9166 104.782 22.8123C105.512 22.7079 106.176 22.651 106.774 22.6415C106.746 21.6357 106.513 20.9431 106.077 20.5635C105.65 20.1745 104.971 19.98 104.042 19.98C103.444 19.98 102.846 20.0654 102.248 20.2362C101.65 20.407 100.972 20.7058 100.213 21.1328L99.8856 18.5425C100.635 18.125 101.432 17.8024 102.277 17.5747C103.131 17.3375 104.004 17.2189 104.895 17.2189C106.006 17.2189 106.935 17.4134 107.685 17.8024C108.435 18.1914 108.999 18.8319 109.379 19.7238C109.768 20.6157 109.962 21.8065 109.962 23.2962V26.7689C109.962 27.4616 109.995 27.9882 110.062 28.3487C110.128 28.7093 110.256 28.956 110.446 29.0888C110.645 29.2217 110.944 29.2881 111.343 29.2881H111.727L111.386 31.8784H110.503C109.858 31.8784 109.322 31.8025 108.895 31.6507C108.468 31.5084 108.117 31.3044 107.842 31.0387C107.576 30.773 107.348 30.4551 107.158 30.0851C106.675 30.6354 106.048 31.0719 105.28 31.3945C104.521 31.7171 103.709 31.8784 102.846 31.8784ZM103.956 29.4162C104.402 29.4162 104.891 29.3023 105.422 29.0746C105.953 28.8374 106.409 28.5053 106.788 28.0783V24.8048C105.878 24.8333 105.057 24.9519 104.326 25.1606C103.596 25.3599 103.017 25.6588 102.59 26.0573C102.172 26.4463 101.964 26.9444 101.964 27.5517C101.964 28.1874 102.13 28.6571 102.462 28.9607C102.803 29.2644 103.301 29.4162 103.956 29.4162ZM113.683 31.5938V17.4608H116.558L116.715 19.2684C117.208 18.6896 117.782 18.1962 118.437 17.7882C119.091 17.3802 119.798 17.1762 120.557 17.1762C120.785 17.1762 120.999 17.1999 121.198 17.2473L120.942 20.4781C120.761 20.4307 120.581 20.4022 120.401 20.3927C120.22 20.3737 120.035 20.3643 119.846 20.3643C119.2 20.3643 118.607 20.5113 118.067 20.8055C117.526 21.0996 117.146 21.4412 116.928 21.8302V31.5938H113.683ZM122.911 31.5938V10.2449H126.085V23.467L130.768 17.4608H134.44L129.117 24.1786L134.568 31.5938H130.881L126.085 24.9898V31.5938H122.911ZM145.332 31.9923C143.339 31.9923 141.579 31.5653 140.051 30.7113C138.524 29.8574 137.328 28.6571 136.465 27.1105C135.601 25.5544 135.17 23.7279 135.17 21.631C135.17 19.534 135.611 17.7123 136.493 16.1657C137.376 14.6096 138.59 13.4045 140.137 12.5506C141.683 11.6966 143.453 11.2697 145.446 11.2697C146.48 11.2697 147.443 11.3835 148.335 11.6112C149.227 11.8295 150 12.1046 150.655 12.4367L150.299 15.5537C149.578 15.2216 148.819 14.9464 148.022 14.7282C147.225 14.5004 146.356 14.3866 145.417 14.3866C143.956 14.3866 142.732 14.7044 141.745 15.3402C140.768 15.9664 140.028 16.8298 139.525 17.9305C139.031 19.0217 138.785 20.2551 138.785 21.631C138.785 23.0068 139.027 24.245 139.511 25.3457C140.004 26.4368 140.735 27.3003 141.702 27.936C142.68 28.5622 143.89 28.8753 145.332 28.8753C146.3 28.8753 147.177 28.771 147.965 28.5622C148.762 28.3535 149.54 28.0688 150.299 27.7083L150.655 30.8394C149.915 31.181 149.099 31.4562 148.207 31.6649C147.315 31.8831 146.356 31.9923 145.332 31.9923ZM153.183 31.5938V10.2449H156.371V19.6669L155.532 19.2541C156.148 18.6848 156.817 18.2057 157.538 17.8166C158.26 17.4181 159.147 17.2189 160.2 17.2189C161.433 17.2189 162.449 17.494 163.246 18.0444C164.043 18.5947 164.631 19.3585 165.01 20.3358C165.39 21.3131 165.58 22.447 165.58 23.7374V31.5938H162.406V24.0078C162.406 22.6035 162.164 21.5693 161.68 20.9051C161.206 20.2314 160.451 19.8946 159.417 19.8946C158.573 19.8946 157.856 20.1033 157.268 20.5208C156.689 20.9383 156.201 21.4981 155.802 22.2003L156.371 20.4212V31.5938H153.183ZM171.952 31.8784C171.155 31.8784 170.438 31.7076 169.803 31.366C169.167 31.0244 168.664 30.5405 168.294 29.9143C167.933 29.2881 167.753 28.548 167.753 27.694C167.753 26.897 167.933 26.2138 168.294 25.6445C168.664 25.0657 169.148 24.5866 169.746 24.2071C170.353 23.8275 171.012 23.5286 171.724 23.3104C172.445 23.0827 173.166 22.9166 173.887 22.8123C174.618 22.7079 175.282 22.651 175.88 22.6415C175.851 21.6357 175.619 20.9431 175.183 20.5635C174.756 20.1745 174.077 19.98 173.147 19.98C172.55 19.98 171.952 20.0654 171.354 20.2362C170.756 20.407 170.078 20.7058 169.319 21.1328L168.991 18.5425C169.741 18.125 170.538 17.8024 171.382 17.5747C172.236 17.3375 173.109 17.2189 174.001 17.2189C175.111 17.2189 176.041 17.4134 176.791 17.8024C177.54 18.1914 178.105 18.8319 178.484 19.7238C178.874 20.6157 179.068 21.8065 179.068 23.2962V26.7689C179.068 27.4616 179.101 27.9882 179.168 28.3487C179.234 28.7093 179.362 28.956 179.552 29.0888C179.751 29.2217 180.05 29.2881 180.449 29.2881H180.833L180.491 31.8784H179.609C178.964 31.8784 178.428 31.8025 178.001 31.6507C177.574 31.5084 177.223 31.3044 176.947 31.0387C176.682 30.773 176.454 30.4551 176.264 30.0851C175.78 30.6354 175.154 31.0719 174.386 31.3945C173.626 31.7171 172.815 31.8784 171.952 31.8784ZM173.062 29.4162C173.508 29.4162 173.996 29.3023 174.528 29.0746C175.059 28.8374 175.515 28.5053 175.894 28.0783V24.8048C174.983 24.8333 174.163 24.9519 173.432 25.1606C172.701 25.3599 172.123 25.6588 171.696 26.0573C171.278 26.4463 171.069 26.9444 171.069 27.5517C171.069 28.1874 171.235 28.6571 171.567 28.9607C171.909 29.2644 172.407 29.4162 173.062 29.4162ZM182.789 31.5938V17.4608H185.963V31.5938H182.789ZM182.789 14.9559V11.6682H185.963V14.9559H182.789ZM189.349 31.5938V17.4608H192.181L192.452 20.1223L191.569 19.2826C192.252 18.6089 192.993 18.0965 193.79 17.7455C194.596 17.3944 195.474 17.2189 196.423 17.2189C198.32 17.2189 199.71 17.8166 200.593 19.0122C201.475 20.2077 201.916 21.7875 201.916 23.7516V31.5938H198.743V23.9224C198.743 22.5371 198.501 21.5218 198.017 20.8766C197.533 20.2219 196.736 19.8946 195.626 19.8946C194.762 19.8946 194.027 20.0938 193.42 20.4924C192.812 20.8909 192.338 21.4649 191.996 22.2145L192.523 20.5351V31.5938H189.349Z" fill="black"/>
    <path d="M0.909601 24.8686C0.51997 24.2713 0.245415 23.6227 0.0859375 22.9531H15.9055C15.9297 22.9947 15.9551 23.0359 15.9816 23.0765L22.7354 33.4295L19.2461 38.8323L18.143 40.5344L18.1449 40.5373L16.4993 43.0854H14.5696C13.4615 43.0854 12.4284 42.5258 11.8229 41.5978L0.909601 24.8686Z" fill="#5296FF"/>
    <path d="M14.5752 0H16.5274L18.1619 2.53076L18.1563 2.53926L19.2563 4.24553L19.2629 4.23552L22.7521 9.63828L15.9872 20.0083C15.8563 20.209 15.7535 20.4223 15.6789 20.6428H0.00551854C0.00551854 20.6428 -0.127727 19.8156 0.915253 18.2168L11.8286 1.48762C12.434 0.559563 13.4671 0 14.5752 0Z" fill="#96BCFF"/>
    <path d="M33.2998 0H31.3476H18.7566L31.8878 19.7638C32.0187 19.9621 32.1215 20.1727 32.1961 20.3905H47.8695C47.8695 20.3905 48.0027 19.5734 46.9597 17.9942L36.0464 1.46944C35.441 0.552725 34.4079 0 33.2998 0Z" fill="#BCCEFF"/>
    <path d="M33.2998 43.0781H31.3476H18.7566L31.8878 23.3144C32.0187 23.1161 32.1215 22.9054 32.1961 22.6876H47.8695C47.8695 22.6876 48.0027 23.5047 46.9597 25.0839L36.0464 41.6087C35.441 42.5254 34.4079 43.0781 33.2998 43.0781Z" fill="#2E84FF"/>
</svg>
